<svg xmlns="http://www.w3.org/2000/svg" version="1.1" xmlns:xlink="http://www.w3.org/1999/xlink" viewBox="0 0 3.5318553903541705 2.554133010421295"><g transform="matrix(0.8343298880545637,0,0,0.8343298880545637,0.5041331898275494,1.325451647738425)"><rect width="4.039021090418792" height="4.039021090418792" x="-0.5071657000646221" y="-2.0775033646211507" fill="#fcf7ee"></rect><g transform="matrix(1,0,0,1,0,0)" clip-path="url(#SvgjsClipPath14346)"><g clip-path="url(#SvgjsClipPath143411baf886b-16b5-45bf-bdd4-1b4f94609cad)"><path d=" M 2.1003939746723566 -0.6953244781272064 C 2.083930220296148 -0.9240100419625932 1.884758947842501 -1.0966786854203918 1.6560733840071142 -1.080415708536576 C 1.5243633489974446 -1.0709791663941148 1.4036960760693784 -0.998498491640318 1.3332231762395095 -0.8864646508851417 C 1.3237866340970483 -0.8712055614632898 1.3278021839449041 -0.8513285897164036 1.3426597183819704 -0.8412897150967641 L 1.4512803417664695 -0.7672028204038248 C 1.4589098864773955 -0.7619826056016124 1.4683464286198564 -0.7601756081700772 1.4771806382851391 -0.7621833830940051 C 1.4862156254428145 -0.764191158017933 1.4938451701537407 -0.769812927804931 1.4986638299711674 -0.7776432500082499 C 1.5352053335866551 -0.8390811626804433 1.5996549086447405 -0.8788351061742157 1.6711316959365736 -0.8840553209764281 C 1.7913974138798543 -0.8926887531493182 1.8962032649088902 -0.8017365490953846 1.9048366970817803 -0.6814708311521039 C 1.909053024422029 -0.623245358358195 1.8901799401371067 -0.5668268829958213 1.8520322165824767 -0.5226558346694077 C 1.8138844930278466 -0.4784847863429942 1.7606784575437575 -0.451982157347146 1.7024529847498486 -0.4477658300068974 C 1.6159178855285565 -0.4415417277427208 1.5337998911399058 -0.4871182185158841 1.493443615168955 -0.5640159981023223 C 1.4852117379808507 -0.5796766425089598 1.465937098711143 -0.586101522265529 1.44987489931972 -0.5786727550469959 L 1.3306130688384032 -0.523258167146586 C 1.3223811916502988 -0.519443394791123 1.3161570893861225 -0.5124161825573754 1.3131454270002305 -0.5039835278768782 C 1.3101337646143387 -0.49535009570398825 1.3107360970915172 -0.4861143310539201 1.3149524244317656 -0.4780832313582085 C 1.386027656738813 -0.33693665420607777 1.5293827863072642 -0.25 1.6851861204040688 -0.25 C 1.6950242175313155 -0.25 1.7050630921509549 -0.25040155498478545 1.7151019667705945 -0.2510038874619639 C 1.825931142571414 -0.2588342096652827 1.926922221244987 -0.3094301377482658 1.9996036734911766 -0.39335512956845164 C 2.072485903229759 -0.4772801213886374 2.108224296875676 -0.5844953023263868 2.1003939746723566 -0.6953244781272064 Z M 1.9494093003929795 -0.4371246229100795 C 1.8883729427055715 -0.36665172308021055 1.8034440634234215 -0.32428767218533194 1.7104840844455602 -0.31746123744397714 C 1.5813841568369966 -0.3082254727939088 1.4597129964469668 -0.37046649543567345 1.3912478715410255 -0.4778824538658156 L 1.450678009289291 -0.5055897478160205 C 1.5036832672809874 -0.42768808076761833 1.5920253639338147 -0.3807061475477057 1.6865915628508183 -0.3807061475477057 C 1.6934179975921733 -0.3807061475477057 1.7002444323335282 -0.3809069250400986 1.7070708670748829 -0.3815092575172768 C 1.78316553669175 -0.38693024981188207 1.8524337715672623 -0.42166475599583464 1.902427367173067 -0.4792878963125652 C 1.9524209627788711 -0.5369110366292956 1.9769158168507917 -0.6103955988450565 1.9714948245561863 -0.6864902684619235 C 1.96025128498219 -0.8434982675130847 1.8235218126627004 -0.9619569880248302 1.6665138136115396 -0.950713448450834 C 1.5853997066848526 -0.9448909011714431 1.5109112570071277 -0.9047354026928853 1.4615199938785017 -0.841289715096764 L 1.4081131809020198 -0.8778312187122516 C 1.4685472061122493 -0.9569375507150105 1.5609048526129323 -1.0073327013056006 1.6608920438245414 -1.0143599135393482 C 1.8528353265520479 -1.0280127830220578 2.020283755207634 -0.883051433514464 2.0339366246903436 -0.6911081507869575 C 2.0405622819393057 -0.597545839331918 2.0104456580803873 -0.5075975227399485 1.9494093003929795 -0.4371246229100795 Z" fill="#059ece" transform="matrix(1,0,0,1,0,0)" fill-rule="nonzero"></path></g><g clip-path="url(#SvgjsClipPath143411baf886b-16b5-45bf-bdd4-1b4f94609cad)"><path d=" M 1.5894152565327082 -0.651755762277971 L 1.688800115267139 -0.651755762277971 C 1.6978351024248144 -0.651755762277971 1.7052638696433475 -0.6591845294965042 1.7052638696433475 -0.6682195166541798 L 1.7052638696433475 -0.6782583912738193 C 1.7052638696433475 -0.6872933784314947 1.6978351024248144 -0.6947221456500279 1.688800115267139 -0.6947221456500279 L 1.5924269189186002 -0.6947221456500279 L 1.2442787471095038 -0.6947221456500279 L 1.2723875960444941 -0.6714319565324643 L 1.2486958519421452 -0.6517557622779709 L 1.5894152565327082 -0.6517557622779709 Z" fill="#059ece" transform="matrix(1,0,0,1,0,0)" fill-rule="nonzero"></path></g><g clip-path="url(#SvgjsClipPath143411baf886b-16b5-45bf-bdd4-1b4f94609cad)"><path d=" M 1.0894793004746635 -0.6714319565324645 L 0.923235536773434 -0.5602012257468593 L 1.1384690086185039 -0.5602012257468593 L 1.2486958519421452 -0.651755762277971 L 1.2723875960444941 -0.6714319565324645 Z" fill="#d14609" transform="matrix(1,0,0,1,0,0)" fill-rule="nonzero"></path></g><g clip-path="url(#SvgjsClipPath143411baf886b-16b5-45bf-bdd4-1b4f94609cad)"><path d=" M 1.6813713480486059 -0.7599748306776846 C 1.6398104071232984 -0.7599748306776846 1.6044735684621676 -0.7326690917122651 1.592627696410993 -0.6949229231424209 L 1.6890008927595317 -0.6949229231424209 C 1.6980358799172075 -0.6949229231424209 1.7054646471357406 -0.6874941559238876 1.7054646471357406 -0.6784591687662122 L 1.7054646471357406 -0.6684202941465727 C 1.7054646471357406 -0.6593853069888972 1.6980358799172075 -0.6519565397703639 1.6890008927595317 -0.6519565397703639 L 1.5896160340251013 -0.6519565397703639 C 1.5968440237512416 -0.6075847139515576 1.6351925247982644 -0.5736533177371762 1.6815721255409986 -0.5736533177371762 C 1.7329711635935527 -0.5736533177371762 1.7747328820112527 -0.6154150361548764 1.7747328820112527 -0.6668140742074304 C 1.77453210451886 -0.7182131122599843 1.7327703861011599 -0.7599748306776846 1.6813713480486059 -0.7599748306776846 Z" fill="#e85d18" transform="matrix(1,0,0,1,0,0)" fill-rule="nonzero"></path></g><g clip-path="url(#SvgjsClipPath143411baf886b-16b5-45bf-bdd4-1b4f94609cad)"><path d=" M 1.1384690086185039 -0.7826626873180695 L 0.923235536773434 -0.7826626873180695 L 1.0894793004746635 -0.6714319565324645 L 1.2723875960444941 -0.6714319565324645 L 1.2442787471095038 -0.6949229231424207 Z" fill="#e85d18" transform="matrix(1,0,0,1,0,0)" fill-rule="nonzero"></path></g></g><g><path d=" M 0.45262210380737367 0.543764438703739 Q 0.44798774779569406 0.5458241524867078 0.4387190357723349 0.5514883653898717 Q 0.43048018064046006 0.5566376498472935 0.4152897914910658 0.566678754539266 Q 0.40009940234167163 0.5767198592312384 0.3753828369460471 0.5942274263864724 Q 0.37950226451198454 0.5865034997003398 0.37512537272317603 0.5823840721344022 Q 0.3707484809343675 0.5782646445684649 0.36353948269397707 0.5767198592312384 Q 0.35478569911636004 0.5746601454482696 0.34294234486429 0.5751750738940118 Q 0.32440492081757155 0.5767198592312384 0.2896472507299746 0.5787795730142071 Q 0.25488958064237766 0.5808392867971758 0.21112066275429262 0.5823840721344022 Q 0.21112066275429262 0.6647726234531506 0.21009080586280826 0.7165229322502394 Q 0.2090609489713239 0.7682732410473283 0.20854602052558174 0.7971092340088901 Q 0.20751616363409736 0.8310945114278738 0.20648630674261303 0.8470572932458813 Q 0.20545644985112865 0.8573558621607249 0.2003071653937069 0.8671395026298263 Q 0.1961877378277695 0.8758932862074432 0.18717649002728137 0.8856769266765446 Q 0.17816524222679328 0.895460567145646 0.16220246040878578 0.9031844938317787 L 0.395465046329992 0.9031844938317787 Q 0.4119427565937417 0.9031844938317787 0.42893539530323355 0.9011247800488099 Q 0.4433533917840145 0.8995799947115835 0.4598311020477642 0.8959754955913881 Q 0.47630881231151384 0.8923709964711929 0.491241737238037 0.8851619982308024 Q 0.4654953149509281 0.9093636351806847 0.4402638211095614 0.9222368463242392 Q 0.4150323272681947 0.9351100574677936 0.3939202609927655 0.9407742703709576 Q 0.369203695597141 0.9474683401656059 0.3470617724302274 0.9484981970570903 Q 0.296598784747494 0.9484981970570903 0.2518000099679246 0.9490131255028325 Q 0.2070012351883552 0.9495280539485746 0.1709562439864028 0.9510728392858011 Q 0.1349112527844504 0.9526176246230277 0.10942229472021264 0.9549348026288674 Q 0.08393333665597487 0.9572519806347073 0.07260491084964697 0.9603415513091603 Q 0.08856769266765446 0.9443787694911528 0.09757894046814256 0.9289309161188875 Q 0.10659018826863066 0.9134830627466222 0.11122454428031026 0.8944307102541617 Q 0.11585890029198985 0.8753783577617011 0.11714622140634529 0.8514341850346898 Q 0.11843354252070074 0.8274900123076786 0.11791861407495856 0.7945345917801793 L 0.11791861407495856 0.5834139290258866 Q 0.10298568914843542 0.5834139290258866 0.08882515689052556 0.5828990005801444 Q 0.07466462463261568 0.5823840721344022 0.061276485043319076 0.581354215242918 L 0.11791861407495856 0.5520032938356139 Q 0.11791861407495856 0.5241971577655363 0.11766114985208748 0.49355891524387674 Q 0.11740368562921638 0.4629206727222172 0.11740368562921638 0.42790553841174916 Q 0.11740368562921638 0.3928904041012812 0.11714622140634529 0.3524685211105202 Q 0.1168887571834742 0.3120466381197593 0.1168887571834742 0.26415829266573687 Q 0.09371697712507623 0.26415829266573687 0.07311983929538915 0.2636433642199947 Q 0.052522701465702065 0.2631284357742525 0.035015134310468043 0.2620985788827681 L 0.13079182521851299 0.21112066275429264 Q 0.22862822990952664 0.21112066275429264 0.29788610586184944 0.20983334163993717 Q 0.3671439818141723 0.2085460205255817 0.4124576850394839 0.20700123518835523 Q 0.4649803865051859 0.20494152140538646 0.49999552081565396 0.2028818076224178 Q 0.517503087970888 0.2028818076224178 0.5231673008740519 0.20571391407399975 Q 0.5288315137772159 0.2085460205255817 0.5278016568857316 0.21189305542290593 Q 0.5267717999942472 0.21524009032023006 0.5216225155368254 0.21884458944042529 Q 0.5164732310794037 0.2224490885606205 0.5123538035134663 0.22399387389784708 Q 0.5082343759475288 0.22605358768081574 0.4969059501412009 0.2327476574754641 Q 0.4871223096720996 0.238411870378628 0.46935727829399443 0.25051268885356914 Q 0.45159224691588934 0.2626135073285103 0.4206965401713587 0.2832106451581974 Q 0.43099510908620225 0.2718822193518695 0.42945032374897574 0.2664754706715766 Q 0.42790553841174916 0.26106872199128384 0.42224132550858523 0.2584940797625729 Q 0.4155472557139369 0.25591943753386204 0.40370390146186685 0.25591943753386204 Q 0.3939202609927655 0.2569492944253464 0.37435298005456275 0.2577216870939596 Q 0.35478569911636004 0.2584940797625729 0.32878181260638006 0.25952393665405726 Q 0.30277792609640014 0.26055379354554165 0.2723971477976117 0.2615836504370259 Q 0.24201636949882324 0.2626135073285103 0.21009080586280826 0.2631284357742525 Q 0.21060573430855045 0.3455169870930008 0.21086319853142152 0.4109128997022573 Q 0.21112066275429262 0.47630881231151384 0.21112066275429262 0.5308912275601846 Q 0.2636433642199947 0.5303762991144424 0.30561003254798214 0.5290889780000869 Q 0.34757670087596954 0.5278016568857316 0.37744255072901584 0.526256871548505 Q 0.4124576850394839 0.5241971577655363 0.4397488926638192 0.5226523724283098 Q 0.4567415313733111 0.5221374439825676 0.4624057442764751 0.5247120862112784 Q 0.468069957179639 0.5272867284399894 0.4670401002881546 0.5308912275601846 Q 0.4660102433966703 0.5344957266803798 0.4611184231621196 0.5383576900234461 Q 0.4562266029275689 0.5422196533665125 0.45262210380737367 0.543764438703739 M 1.0895885911904468 0.7816613806366248 L 1.0777452369383766 0.8377885812225222 Q 1.0499391008682992 0.8614752897266623 1.0316591410444518 0.8766656788760565 Q 1.0133791812206046 0.8918560680254508 1.0020507554142766 0.9011247800488099 Q 0.98866261582498 0.9119382774093957 0.9809386891388474 0.9181174187583018 Q 0.9721849055612304 0.9253264169986922 0.962401265092129 0.9327928794619539 Q 0.9526176246230277 0.9402593419252154 0.942061591485313 0.9459235548283793 Q 0.9315055583475984 0.9515877677315433 0.9209495252098838 0.9549348026288674 Q 0.9103934920721691 0.9582818375261916 0.9006098516030678 0.9567370521889651 Q 0.8702290733042793 0.953647481514512 0.8702290733042793 0.8336691536565848 Q 0.8702290733042793 0.7816613806366248 0.8733186439787324 0.7121460404614309 Q 0.8583857190522093 0.738407391194282 0.8452550436857837 0.7597769216925823 Q 0.8321243683193582 0.7811464521908826 0.8218257994045146 0.7960793771174058 Q 0.8099824451524447 0.8135869442726398 0.7996838762376011 0.8274900123076786 Q 0.7765120961792031 0.8568409337149827 0.7543701730122895 0.8802701779962517 Q 0.7322282498453758 0.9036994222775209 0.7126609689071731 0.9206920609870126 Q 0.6930936879689704 0.9376846996965045 0.677388370373834 0.9472108759427348 Q 0.6616830527786977 0.9567370521889651 0.6518994123095962 0.9577669090804495 Q 0.6421157718404948 0.9587967659719338 0.6302724175884248 0.9551922668517385 Q 0.6184290633363547 0.9515877677315433 0.607358101752898 0.93897202081086 Q 0.5962871401694411 0.9263562738901766 0.5877908208146951 0.9026695653860365 Q 0.5792945014599493 0.8789828568818964 0.5762049307854962 0.8398482950054909 Q 0.5751750738940118 0.8321243683193582 0.5751750738940118 0.8241429774103545 Q 0.5751750738940118 0.8161615865013507 0.5751750738940118 0.8084376598152181 Q 0.5751750738940118 0.7708478832760391 0.5810967510200469 0.7301685360624072 Q 0.587018428146082 0.6894891888487751 0.5970595328380544 0.6526718049782094 Q 0.6071006375300269 0.6158544211076438 0.6207462413421945 0.5857311070317265 Q 0.6343918451543622 0.5556077929558091 0.6498396985266275 0.5391300826920594 Q 0.6611681243329555 0.5267717999942472 0.6781607630424473 0.5128687319592085 Q 0.6951534017519392 0.49896566392416963 0.714978146913013 0.4853200601120019 Q 0.7348028920740868 0.47167445629983423 0.7559149583495159 0.4590587093791509 Q 0.7770270246249453 0.4464429624584676 0.7960793771174058 0.4366593219893662 Q 0.8151317296098664 0.4268756815202648 0.8305795829821316 0.4206965401713587 Q 0.846027436354397 0.41451739882245253 0.8552961483777561 0.41297261348522607 L 0.8655947172925997 0.41297261348522607 Q 0.8707440017500215 0.41297261348522607 0.877952999990412 0.41297261348522607 Q 0.8851619982308024 0.41297261348522607 0.8944307102541617 0.41400247037671045 Q 0.8980352093743569 0.3676589102599145 0.901382244271681 0.32388999237182936 Q 0.9047292791690051 0.28012107448374435 0.907046457174845 0.24124397683020993 Q 0.9093636351806849 0.20236687917667562 0.9109084205179113 0.16992638709491847 Q 0.9124532058551378 0.13748589501316133 0.9124532058551378 0.11431411495476329 Q 0.9124532058551378 0.0937169771250762 0.9091061709578137 0.08316094398736162 Q 0.9057591360604895 0.07260491084964693 0.8985501378200991 0.06488098416351429 Q 0.8939157818084195 0.06076155659757687 0.8872217120137712 0.0597316997060926 Q 0.8815574991106072 0.05870184281460822 0.8728037155329902 0.06076155659757687 Q 0.8640499319553732 0.06282127038054564 0.8522065777033031 0.07003026862093609 Q 0.8784679284361542 0.052007773019959846 0.8964904240371303 0.039649490322147596 Q 0.9145129196381065 0.027291207624335345 0.9263562738901766 0.020082209383944893 Q 0.9397444134794732 0.011328425806327869 0.9484981970570903 0.006694069794648261 Q 0.9593116944176759 0.000514928445742191 0.9698677275553906 0.0002574642228710955 Q 0.9804237606931052 0 0.98866261582498 0.007466462463261547 Q 0.9969014709568549 0.014932924926523095 1.0010208985227922 0.03089570674453057 Q 1.0051403260887297 0.04685848856253816 1.003080612305761 0.07311983929538912 Q 1.0015358269685346 0.08650797888468575 0.9987037205169524 0.11972086363505619 Q 0.9958716140653705 0.15293374838542662 0.9917521864994332 0.1990198442793515 Q 0.9876327589334957 0.24510594017327625 0.9832558671446872 0.30020328386768924 Q 0.9788789753558786 0.35530062756210223 0.9742446193441991 0.41297261348522607 Q 0.9696102633325195 0.4706445994083499 0.965233371543711 0.5270292642171183 Q 0.9608564797549025 0.5834139290258866 0.9577669090804495 0.6315597387027803 Q 0.9546773384059963 0.6797055483796738 0.9526176246230277 0.7162654680273683 Q 0.950557910840059 0.7528253876750629 0.950557910840059 0.770332954830297 Q 0.950557910840059 0.8233705847417412 0.9577669090804495 0.8527215061490453 Q 0.9649759073208399 0.8820724275563494 0.9840282598133004 0.8820724275563494 Q 0.9974163994025971 0.8820724275563494 1.0180135372322843 0.8661096457383419 Q 1.0329464621588074 0.8542662914862719 1.0463346017481039 0.840363223451233 Q 1.0581779560001738 0.828519869199163 1.070021310252244 0.8133294800497688 Q 1.0818646645043142 0.7981390909003745 1.0895885911904468 0.7816613806366248 M 0.8892814257967399 0.4866073812263574 Q 0.8589006474979515 0.4809431683231934 0.8367587243310378 0.4791409187630958 Q 0.8146168011641242 0.47733866920299817 0.7996838762376011 0.47733866920299817 Q 0.7708478832760391 0.47733866920299817 0.7489634243319966 0.49149920146090803 Q 0.7270789653879541 0.5056597337188179 0.7106012551242045 0.5283165853314737 Q 0.6941235448604548 0.5509734369441295 0.6830525832769979 0.5798094299056914 Q 0.6719816216935411 0.6086454228672533 0.6652875518988928 0.6379963442745574 Q 0.6585934821042445 0.6673472656818615 0.6557613756526626 0.6943810090833258 Q 0.6529292692010806 0.7214147524847901 0.6529292692010806 0.7409820334229928 Q 0.6529292692010806 0.7492208885548677 0.6537016618696938 0.7623515639212932 Q 0.6544740545383071 0.7754822392877188 0.656791232544147 0.7901576999913708 Q 0.6591084105499867 0.8048331606950228 0.6632278381159241 0.819766085621546 Q 0.6673472656818615 0.834699010548069 0.6735264070307676 0.8467998290230103 Q 0.6797055483796738 0.8589006474979515 0.6884593319572908 0.866367109961213 Q 0.6972131155349078 0.8738335724244746 0.7090564697869779 0.8738335724244746 Q 0.7224446093762745 0.8738335724244746 0.7412394976458639 0.8568409337149827 Q 0.7600343859154535 0.8398482950054909 0.7899002357684997 0.8007137331290854 Q 0.8043182322492807 0.7806315237451404 0.819766085621546 0.7512806023378364 Q 0.8331542252108426 0.7260491084964698 0.8491170070288501 0.6874294750658064 Q 0.8650797888468575 0.6488098416351431 0.881042570664865 0.5952572832779568 L 0.8892814257967399 0.4866073812263574 M 1.7435477172830116 0.23995665571585456 Q 1.7342790052596526 0.2518000099679246 1.720890865670356 0.2631284357742525 Q 1.709562439864028 0.2729120762433539 1.6928272653774072 0.2837255736039396 Q 1.6760920908907866 0.29453907096452525 1.653950167723873 0.3032928545421423 Q 1.6611591659642633 0.29402414251878317 1.6552374888382284 0.2834681093810685 Q 1.6493158117121933 0.2729120762433539 1.6292336023282483 0.26415829266573687 Q 1.6091513929443035 0.25540450908811985 1.5749086513024486 0.24974029618495586 Q 1.540665909660594 0.24407608328179198 1.491232778869345 0.24407608328179198 Q 1.462396785907783 0.24407608328179198 1.4291839011574126 0.24999776040782695 Q 1.3959710164070422 0.25591943753386204 1.363530524325285 0.27033743401464294 Q 1.331090032243528 0.28475543049542396 1.3009667181676106 0.30869960322243517 Q 1.2708434040916932 0.3326437759494464 1.2476716240332952 0.36843130292852777 Q 1.2244998439748973 0.40421882990760905 1.2108542401627296 0.45339449647598695 Q 1.1972086363505619 0.5025701630443649 1.1972086363505619 0.566936218762137 Q 1.1972086363505619 0.6313022744799092 1.2129139539456983 0.680220476825416 Q 1.2286192715408346 0.7291386791709228 1.2546231580508145 0.764411277704262 Q 1.2806270445607946 0.7996838762376011 1.314097393534036 0.8231131205188701 Q 1.3475677425072776 0.8465423648001391 1.3825828768177457 0.860702897058049 Q 1.4175980111282136 0.874863429315959 1.4513258243243263 0.8805276422191228 Q 1.4850536375204388 0.8861918551222868 1.5123448451447743 0.8861918551222868 Q 1.5329419829744613 0.8861918551222868 1.5566286914786014 0.8841321413393181 Q 1.5767109008625464 0.8825873560020916 1.6024573231496553 0.8789828568818964 Q 1.628203745436764 0.8753783577617011 1.6560098815068416 0.8681693595213106 Q 1.663218879747232 0.8604454328351779 1.6673383073131696 0.851949113480432 Q 1.671457734879107 0.8434527941256861 1.6740323771078178 0.8362437958852956 Q 1.6766070193365286 0.8280049407534208 1.6781518046737554 0.819766085621546 Q 1.6812413753482083 0.7667284557101017 1.680726446902466 0.7147206826901418 Q 1.680211518456724 0.6627129096701819 1.680211518456724 0.6101902082044799 Q 1.665793521975943 0.6086454228672533 1.6493158117121933 0.6071006375300267 Q 1.6328381014484437 0.6055558521928003 1.6168753196304362 0.6055558521928003 Q 1.6040021084868816 0.6055558521928003 1.593446075349167 0.6065857090842847 Q 1.5828900422114525 0.6076155659757689 1.5746511870795776 0.6112200650959643 Q 1.6040021084868816 0.593197569494988 1.6245992463165688 0.5831564648030156 Q 1.645196384146256 0.5731153601110431 1.6585845237355525 0.5674511472078791 Q 1.6740323771078178 0.5612720058589731 1.6843309460226614 0.5592122920760043 Q 1.6956593718289894 0.5576675067387777 1.71239454631561 0.5566376498472935 Q 1.7291297208022307 0.5556077929558091 1.746894752180336 0.5548354002871958 Q 1.764659783558441 0.5540630076185826 1.781909886490804 0.5527756865042271 Q 1.799159989423167 0.5514883653898717 1.8120332005667212 0.5489137231611608 L 1.775988209364769 0.5741452170025274 Q 1.7749583524732846 0.6276977753597139 1.773671031358929 0.6634853023387952 Q 1.7723837102445736 0.6992728293178765 1.7713538533530893 0.720899824039048 Q 1.7698090680158627 0.7461313178804146 1.7687792111243783 0.7610642428069377 Q 1.7682642826786363 0.7780568815164296 1.7628575339983432 0.793504734888695 Q 1.7574507853180505 0.8089525882609603 1.7458648952888516 0.8236280489646123 Q 1.7342790052596526 0.8383035096682643 1.715484116990063 0.8527215061490453 Q 1.6966892287204736 0.8671395026298263 1.6699129495418803 0.8820724275563494 Q 1.628203745436764 0.9098785636264269 1.5926736826805539 0.9248114885529501 Q 1.5571436199243436 0.9397444134794732 1.5308822691914927 0.9469534117198637 Q 1.499986562446962 0.9551922668517385 1.4747550686055952 0.9567370521889651 Q 1.398545658635753 0.9567370521889651 1.331090032243528 0.9343376647991803 Q 1.2636344058513027 0.9119382774093957 1.2129139539456983 0.8694566806356661 Q 1.1621935020400938 0.8269750838619364 1.1328425806327898 0.7651836703728752 Q 1.1034916592254855 0.7033922568838139 1.1034916592254855 0.6246082046852608 Q 1.1034916592254855 0.575690002339754 1.1127603712488447 0.5337233340117666 Q 1.122029083272204 0.4917566656837791 1.1372194724215983 0.4567415313733111 Q 1.1524098615709923 0.4217263970628431 1.171462214063453 0.39366279676989435 Q 1.1905145665559136 0.3655991964769457 1.2103393117169874 0.34422966597864535 Q 1.2301640568780612 0.3228601354803451 1.2489589451476506 0.3084421389995641 Q 1.26775383341724 0.29402414251878317 1.281656901452279 0.2863002158326504 Q 1.2950450410415755 0.2785762891465178 1.3158996430941337 0.2687926486774165 Q 1.3367542451466918 0.2590090082083151 1.3617282747651873 0.24896790351634268 Q 1.386702304383683 0.23892679882437018 1.4145084404537607 0.22914315835526877 Q 1.442314576523838 0.21935951788616748 1.4711505694854 0.21163559120003483 Q 1.499986562446962 0.20391166451390208 1.5275352342941684 0.19927730850222258 Q 1.555083906141375 0.19464295249054298 1.5798004715369993 0.19464295249054298 Q 1.6348978152314124 0.19464295249054298 1.668883092650396 0.19979223694796477 Q 1.7028683700693796 0.20494152140538646 1.720633401447485 0.212407983868648 Q 1.73839843282559 0.21987444633190967 1.7427753246143984 0.2275983730180423 Q 1.747152216403207 0.23532229970417495 1.7435477172830116 0.23995665571585456 M 2.125109695577965 0.7873255935397888 L 2.113781269771637 0.8295497260906474 Q 2.10502748619402 0.8383035096682643 2.0924117392733366 0.8514341850346898 Q 2.0797959923526532 0.8645648604011154 2.064605603203259 0.8792403211047675 Q 2.049415214053865 0.8939157818084195 2.0329375037901154 0.9083337782892005 Q 2.0164597935263657 0.9227517747699814 2.000497011708358 0.9340802005763092 Q 1.9845342298903506 0.9454086263826371 1.9698587691866987 0.9518452319544144 Q 1.9551833084830466 0.9582818375261916 1.9438548826767186 0.9567370521889651 Q 1.9263473155214845 0.9541624099602541 1.918880853058223 0.9312480941247273 Q 1.9114143905949614 0.9083337782892005 1.9114143905949614 0.8568409337149827 Q 1.9114143905949614 0.8475722216916235 1.9121867832635748 0.8267176196390653 Q 1.912959175932188 0.8058630175865071 1.9142464970465434 0.7780568815164296 Q 1.915533818160899 0.7502507454463521 1.9173360677209965 0.7170378606959816 Q 1.919138317281094 0.6838249759456112 1.9211980310640628 0.6500971627494986 Q 1.9232577448470316 0.616369349553386 1.9255749228528714 0.5836713932487578 Q 1.927892100858711 0.5509734369441295 1.930466743087422 0.5236822293197941 Q 1.9320115284246486 0.5056597337188179 1.9232577448470316 0.49767834280981416 Q 1.9145039612694146 0.4896969519008104 1.90163075012586 0.4896969519008104 Q 1.8908172527652745 0.4896969519008104 1.8789738985132043 0.4948462363582322 Q 1.8671305442611343 0.49999552081565396 1.857346903792033 0.5087493043932709 Q 1.87794404162172 0.4886670950093261 1.8939068234397274 0.47502149119715836 Q 1.9098696052577349 0.4613758873849907 1.9211980310640628 0.45262210380737367 Q 1.9345861706533594 0.44283846333827226 1.9438548826767186 0.436144393543624 Q 1.9567280938202731 0.42842046685749136 1.9688289122952143 0.42816300263462026 Q 1.9809297307701554 0.42790553841174916 1.9904559070163856 0.43408467976065535 Q 1.999982083262616 0.4402638211095614 2.0053888319429087 0.4521071753616315 Q 2.010795580623202 0.4639505296137016 2.0102806521774594 0.48042823987745126 Q 2.0097657237317175 0.4917566656837791 2.0079634741716195 0.5167306953022748 Q 2.006161224611522 0.5417047249207703 2.0038440466056824 0.5736302885567853 Q 2.0015268685998424 0.6055558521928003 1.9986947621482605 0.6410859149490105 Q 1.9958626556966785 0.6766159777052208 1.9935454776908388 0.7095713982327201 Q 1.991228299684999 0.7425268187602194 1.9894260501249013 0.7693030979388126 Q 1.9876238005648037 0.7960793771174058 1.9871088721190615 0.8104973735981867 Q 1.9860790152275771 0.8398482950054909 1.9935454776908388 0.8578707906064671 Q 2.0010119401541004 0.8758932862074432 2.01748965041785 0.8758932862074432 Q 2.0298479331156623 0.8758932862074432 2.0460681791565407 0.8650797888468575 Q 2.062288425197419 0.8542662914862719 2.078251207015427 0.8398482950054909 Q 2.0942139888334346 0.82543029852471 2.1068297357541175 0.8104973735981867 Q 2.1194454826748013 0.7955644486716636 2.125109695577965 0.7873255935397888 M 2.037571859801795 0.027806136070077536 Q 2.0386017166932793 0.05303762991144423 2.0362845386874393 0.07286237507251803 Q 2.0339673606816 0.09268712023359194 2.0308777900071466 0.10659018826863065 Q 2.0272732908869515 0.12306789853238032 2.0221240064295296 0.13542618123019257 Q 2.0159448650806233 0.14778446392800482 2.003071653937069 0.16220246040878583 Q 1.9922581565764834 0.17456074310659808 1.9734632683068938 0.19078098914747665 Q 1.9546683800373044 0.20700123518835523 1.9248025301842582 0.22502373078933136 Q 1.9345861706533594 0.20545644985112865 1.9402503835565235 0.1835719909070861 Q 1.9459145964596873 0.16168753196304364 1.9490041671341405 0.1431501079163252 Q 1.9526086662543356 0.12152311319515374 1.95363852314582 0.10041104691972458 L 2.037571859801795 0.027806136070077536 M 2.2873121559867506 0.4402638211095614 Q 2.2909166551069458 0.44953253313292063 2.29194651199843 0.4675550287338968 Q 2.2929763688899145 0.485577524334873 2.2929763688899145 0.5087493043932709 Q 2.2929763688899145 0.5252270146570206 2.292461440444172 0.543764438703739 Q 2.29194651199843 0.5623018627504575 2.2909166551069458 0.581354215242918 Q 2.305849580033469 0.5597272205217465 2.323357147188703 0.5368129046862196 Q 2.340864714343937 0.5138985888506927 2.3601745310592688 0.4930439867981346 Q 2.3794843477746004 0.4721893847455764 2.4005964140500295 0.4546818175903424 Q 2.4217084803254587 0.4371742504351084 2.4441078677152435 0.4261032888516516 Q 2.466507255105028 0.4150323272681947 2.4899364993862974 0.4116852923708706 Q 2.5133657436675665 0.40833825747354646 2.537567380617449 0.4160621841596791 Q 2.5509555202067453 0.4201816117256165 2.559451839561491 0.42842046685749136 Q 2.567948158916237 0.4366593219893662 2.573097443373659 0.44876014046430734 Q 2.5782467278310808 0.4608609589392485 2.5800489773911783 0.47630881231151384 Q 2.581851226951276 0.4917566656837791 2.581851226951276 0.5097791612847553 Q 2.581851226951276 0.5499435800526451 2.5787616562768227 0.5890781419290506 Q 2.5756720856023696 0.6282127038054561 2.5718101222593033 0.6665748730132482 Q 2.567948158916237 0.7049370422210405 2.5648585882417843 0.7430417472059616 Q 2.561769017567331 0.7811464521908826 2.561769017567331 0.8187362287300616 Q 2.561769017567331 0.8444826510171705 2.5661459093561394 0.8594155759436936 Q 2.570522801144948 0.8743485008702168 2.581851226951276 0.8769231430989276 Q 2.5931796527576036 0.8764082146531854 2.6070827207926426 0.8671395026298263 Q 2.6189260750447128 0.8599305043894357 2.6354037853084624 0.8434527941256861 Q 2.651881495572212 0.8269750838619364 2.671448776510415 0.7965943055631479 L 2.6673293489444774 0.8357288674395534 Q 2.6534262809094384 0.8511767208118187 2.635146321085591 0.8728037155329902 Q 2.616866361261744 0.8944307102541617 2.59704161610067 0.9137405269694933 Q 2.5772168709395964 0.933050343684825 2.5568771973327804 0.9459235548283793 Q 2.5365375237259644 0.9587967659719338 2.518515028124988 0.9567370521889651 Q 2.4989477471867856 0.9541624099602541 2.486589464488973 0.9343376647991803 Q 2.474231181791161 0.9145129196381065 2.474231181791161 0.8717738586415058 Q 2.474231181791161 0.8506617923660766 2.475775967128387 0.8220832636273858 Q 2.477320752465614 0.793504734888695 2.4798953946943247 0.7620940996984221 Q 2.4824700369230355 0.7306834645081492 2.485302143374618 0.6982429724263921 Q 2.4881342498262 0.665802480344635 2.4909663562777817 0.636451558937331 Q 2.4937984627293637 0.6071006375300267 2.496115640735203 0.5826415363572734 Q 2.498432818741043 0.5581824351845199 2.4994626756325276 0.5427345818122546 Q 2.500492532524012 0.5272867284399894 2.4966305691809456 0.514670981519306 Q 2.4927686058378793 0.5020552345986227 2.4847872149288754 0.4927865225752635 Q 2.4768058240198716 0.4835178105519043 2.4659923266592862 0.47862599031735364 Q 2.4551788292987005 0.47373417008280294 2.442305618155146 0.47373417008280294 Q 2.428402550120107 0.47373417008280294 2.4129546967478417 0.48068570410032235 Q 2.3975068433755764 0.4876372381178417 2.381544061557569 0.5025701630443649 Q 2.373820134871436 0.5102940897304975 2.3627491732879795 0.5239396935426652 Q 2.3516782117045225 0.537585297354833 2.3388050005609684 0.5594697562988754 Q 2.325931789417414 0.581354215242918 2.311771257159504 0.6117349935417065 Q 2.297610724901594 0.6421157718404948 2.2842225853122975 0.6827951190541268 Q 2.283192728420813 0.694638473306197 2.282677799975071 0.7059668991125247 Q 2.2821628715293287 0.7172953249188527 2.2821628715293287 0.7270789653879541 Q 2.2811330146378443 0.7517955307835786 2.2790733008548756 0.7796016668536562 Q 2.2775285155176492 0.8032883753577963 2.2754688017346805 0.8331542252108426 Q 2.2734090879517117 0.8630200750638888 2.270834445723001 0.8939157818084195 L 2.189475751295737 0.9654908357665821 Q 2.195139964198901 0.840363223451233 2.199516855987709 0.758747064801098 Q 2.203893747776518 0.6771309061509629 2.2064683900052287 0.6297574891426826 Q 2.209557960679682 0.5741452170025274 2.2116176744626506 0.5447942955952234 Q 2.213162459799877 0.5102940897304975 2.202348962439291 0.49587609324971654 Q 2.191535465078706 0.4814580967689356 2.175572683260698 0.4814580967689356 Q 2.163214400562886 0.4814580967689356 2.149053868304976 0.4891820234550682 Q 2.134893336047066 0.4969059501412009 2.1220201249035116 0.5087493043932709 Q 2.134893336047066 0.49433130791249 2.1505986536422026 0.47785359764874036 Q 2.166303971237339 0.4613758873849907 2.183811538392573 0.4474728193499519 Q 2.201319105547807 0.43356975131491315 2.2195990653716544 0.42430103929155394 Q 2.2378790251955016 0.4150323272681947 2.2559015207964777 0.4150323272681947 Q 2.2672299466028054 0.4150323272681947 2.2752113375118093 0.4209540043942298 Q 2.283192728420813 0.4268756815202648 2.2873121559867506 0.4402638211095614 M 2.997398482665213 0.7976241624546323 Q 2.9701072750408777 0.828519869199163 2.9471929592053505 0.851949113480432 Q 2.924278643369824 0.8753783577617011 2.9067710762145897 0.8913411395797086 Q 2.8861739383849025 0.9098785636264269 2.869696228121153 0.9232667032157236 Q 2.8243825248958414 0.9593116944176759 2.7909121759226 0.9593116944176759 Q 2.7718598234301393 0.9593116944176759 2.7582142196179715 0.9492705897257036 Q 2.744568615805804 0.939229485033731 2.7347849753367024 0.9232667032157236 Q 2.7250013348676014 0.9073039213977161 2.718822193518695 0.8872217120137712 Q 2.712643052169789 0.8671395026298263 2.709296017272465 0.8467998290230103 Q 2.7059489823751406 0.8264601554161942 2.7046616612607854 0.8079227313694759 Q 2.70337434014643 0.7893853073227575 2.70337434014643 0.7765120961792031 Q 2.70337434014643 0.7420118903144772 2.7113557310554337 0.7018474715465874 Q 2.719337121964437 0.6616830527786977 2.7345275111138316 0.6217760982336789 Q 2.7497179002632257 0.5818691436886602 2.7718598234301393 0.5450517598180944 Q 2.794001746597053 0.5082343759475287 2.822580275335744 0.47965584720883797 Q 2.8511588040744344 0.45107731847014715 2.8854015457162894 0.43408467976065535 Q 2.9196442873581443 0.4170920410511635 2.959293777680292 0.4170920410511635 Q 2.9701072750408777 0.4170920410511635 2.977316273281268 0.4209540043942298 Q 2.9845252715216586 0.42481596773729613 2.989159627533338 0.4315100375319444 Q 2.9937939835450176 0.43820410732659276 2.995596233105115 0.4464429624584676 Q 2.997398482665213 0.4546818175903424 2.997398482665213 0.4634356011679594 Q 2.997398482665213 0.4860924527806152 2.9870999137503693 0.5087493043932709 Q 2.976801344835526 0.5314061560059268 2.959551241903163 0.5532906149499692 Q 2.9423011389708 0.5751750738940118 2.9201592158038863 0.59602967594657 Q 2.8980172926369727 0.6168842779991281 2.8740731199099616 0.6356791662687176 Q 2.8501289471829505 0.6544740545383071 2.82644223867881 0.6709517648020568 Q 2.80275553017467 0.6874294750658064 2.7831882492364675 0.7008176146551031 L 2.7831882492364675 0.7121460404614309 Q 2.7831882492364675 0.7250192516049854 2.7844755703508226 0.7432992114288326 Q 2.785762891465178 0.7615791712526799 2.789109926362502 0.7814039164137537 Q 2.7924569612598265 0.8012286615748276 2.7981211741629903 0.8207959425130303 Q 2.803785387066154 0.840363223451233 2.8125391706437712 0.8558110768234983 Q 2.8212929542213883 0.8712589301957636 2.8333937726963296 0.8807851064419939 Q 2.8454945911712706 0.8903112826882242 2.8614573729892783 0.8903112826882242 Q 2.8686663712296685 0.8903112826882242 2.876390297915801 0.8879941046823844 Q 2.884114224601934 0.8856769266765446 2.8918381512880664 0.8800127137733806 Q 2.9052262908773634 0.869199216412795 2.922218929586855 0.8501468639203345 Q 2.936636926067636 0.8336691536565848 2.9556892785600963 0.8074078029237337 Q 2.974741631052557 0.7811464521908826 2.997398482665213 0.7409820334229928 L 2.997398482665213 0.7976241624546323 M 2.901621791757168 0.49381637946674783 Q 2.895442650408262 0.4866073812263574 2.8856590099391606 0.4845476674433887 Q 2.875875369470059 0.48248795366041997 2.864804407886602 0.485577524334873 Q 2.8537334463031456 0.4886670950093261 2.843177413165431 0.49742087858694306 Q 2.8326213800277165 0.5061746621645601 2.825412381787326 0.5205926586453411 Q 2.8151138128724824 0.5411897964750281 2.80275553017467 0.5795519656828203 Q 2.7903972474768577 0.6179141348906125 2.785247963019436 0.6678621941276037 Q 2.8017256732831854 0.6580785536585023 2.8192332404384195 0.645205342514948 Q 2.8367408075936535 0.6323321313713934 2.8529610536345325 0.6179141348906125 Q 2.869181299675411 0.6034961384098316 2.8823119750418362 0.5877908208146951 Q 2.895442650408262 0.5720855032195588 2.9029091128715234 0.5558652571786802 Q 2.910375575334785 0.5396450111378016 2.9108905037805273 0.5239396935426652 Q 2.9114054322262692 0.5082343759475287 2.901621791757168 0.49381637946674783" fill="#212121" fill-rule="nonzero"></path></g><g></g></g><defs><clipPath id="SvgjsClipPath14346"><path d=" M 0.923235536773434 -1.0814764745900909 h 1.1782186167426802 v 0.8314764745900909 h -1.1782186167426802 Z"></path></clipPath><clipPath id="SvgjsClipPath143411baf886b-16b5-45bf-bdd4-1b4f94609cad"><path d=" M 0.923235536773434 -1.0814764745900909 L 2.101454153516114 -1.0814764745900909 L 2.101454153516114 -0.25 L 0.923235536773434 -0.25 Z"></path></clipPath></defs></svg>